<?xml version="1.0" encoding="UTF-8"?>
<svg width="89px" height="21px" viewBox="0 0 89 21" version="1.1" xmlns="http://www.w3.org/2000/svg" xmlns:xlink="http://www.w3.org/1999/xlink">
    <title>Group</title>
    <g id="UI" stroke="none" stroke-width="1" fill="none" fill-rule="evenodd">
        <g id="Header-UI-Elements" transform="translate(-1151.000000, -1212.000000)" fill="#000000" fill-rule="nonzero">
            <g id="Group" transform="translate(1151.000000, 1212.000000)">
                <path d="M26.8897001,7.21771 L27.9320001,7.21771 L27.3900001,5.84091 L26.8897001,7.21771 Z M25.8057001,8.55279 L27.3483001,4.92304 L27.7652001,4.92304 L29.3079001,8.55279 L28.5157001,8.55279 L28.1822001,7.63492 L26.8063001,7.63492 L26.4311001,8.55279 L25.8057001,8.55279 Z M29.4330001,8.38591 L29.3913001,7.71837 C29.7248001,8.01041 30.1001001,8.1773 30.4753001,8.1773 C30.6838001,8.1773 30.8505001,8.13558 30.9756001,8.05214 C31.1841001,7.88525 31.1841001,7.5932 31.0173001,7.42632 C30.8922001,7.25943 30.6421001,7.17599 30.1001001,6.92566 C29.5998001,6.67534 29.3496001,6.34157 29.3496001,5.88263 C29.3496001,5.59058 29.4747001,5.34026 29.6831001,5.13165 C30.1418001,4.71444 30.9339001,4.88132 31.0173001,4.88132 C31.1841001,4.92304 31.3092001,4.96477 31.4343001,5.00649 L31.4759001,5.63231 C31.3092001,5.50714 31.1424001,5.4237 31.0173001,5.38198 C30.5170001,5.21509 29.9750001,5.34026 29.9750001,5.75747 C29.9750001,5.96607 30.1001001,6.09124 30.3919001,6.25812 C31.0173001,6.59189 31.3509001,6.71706 31.5593001,7.00911 C31.8512001,7.34288 31.8512001,8.05214 31.3926001,8.38591 C31.1424001,8.55279 30.8505001,8.67795 30.4336001,8.67795 C29.9750001,8.63623 29.5998001,8.46935 29.4330001,8.38591 Z M32.8935001,8.55279 L32.8935001,5.34026 C32.6017001,5.34026 32.2681001,5.38198 31.8095001,5.4237 L31.8512001,4.88132 L34.6446001,4.88132 L34.6863001,5.4237 C34.1026001,5.34026 33.7691001,5.34026 33.6023001,5.34026 L33.6023001,8.51107 L32.8935001,8.51107 L32.8935001,8.55279 Z M36.5208001,8.1773 C37.1045001,8.1773 37.6049001,7.71837 37.6049001,6.71706 C37.6049001,6.63362 37.6049001,5.84091 37.1045001,5.4237 C36.9378001,5.29854 36.7710001,5.25681 36.5208001,5.25681 C35.7704001,5.25681 35.4368001,5.96608 35.4368001,6.71706 C35.4785001,7.71837 35.9788001,8.1773 36.5208001,8.1773 Z M36.5208001,8.63623 C35.4368001,8.63623 34.6863001,7.84353 34.6863001,6.75878 C34.6863001,5.63231 35.4368001,4.88132 36.5208001,4.88132 C37.6049001,4.88132 38.3553001,5.63231 38.3553001,6.75878 C38.3553001,7.84353 37.6049001,8.63623 36.5208001,8.63623 Z M38.9390001,8.55279 L38.9390001,4.92304 L39.3143001,4.92304 L41.4823001,7.3846 L41.4823001,4.92304 L41.9826001,4.92304 L41.9826001,8.55279 L41.6074001,8.55279 L39.4394001,6.09124 L39.4394001,8.55279 L38.9390001,8.55279 Z M43.9422001,8.55279 L44.3592001,4.92304 L44.7344001,4.92304 L46.0269001,7.46804 L47.2777001,4.92304 L47.6529001,4.92304 L48.0699001,8.55279 L47.3194001,8.55279 L47.1109001,6.29984 L46.1103001,8.38591 L45.7767001,8.38591 L44.7344001,6.29984 L44.5259001,8.51107 L43.9422001,8.51107 L43.9422001,8.55279 Z M49.4041001,7.21771 L50.4464001,7.21771 L49.9044001,5.84091 L49.4041001,7.21771 Z M48.3200001,8.55279 L49.8627001,4.92304 L50.2796001,4.92304 L51.8223001,8.55279 L51.0301001,8.55279 L50.6965001,7.63492 L49.3207001,7.63492 L48.9454001,8.55279 L48.3200001,8.55279 Z M52.7812001,6.55017 C52.8646001,6.55017 52.9897001,6.59189 53.0731001,6.59189 C53.6568001,6.59189 53.8235001,6.25812 53.8235001,5.96607 C53.8235001,5.50714 53.4900001,5.34026 53.0731001,5.34026 C52.9897001,5.34026 52.9063001,5.34026 52.8229001,5.34026 L52.8229001,6.55017 L52.7812001,6.55017 Z M52.1141001,8.55279 L52.1141001,4.96476 C52.3226001,4.92304 52.5727001,4.92304 52.9480001,4.92304 C53.2815001,4.92304 53.5734001,4.96476 53.7818001,5.04821 C54.1154001,5.17337 54.5323001,5.4237 54.5323001,5.96607 C54.5323001,6.17468 54.4489001,6.38329 54.3239001,6.59189 C54.1988001,6.75878 53.9903001,6.88394 53.7402001,6.96738 L55.0326001,8.59451 L54.1988001,8.59451 L53.0731001,7.05083 L52.8229001,7.05083 L52.8229001,8.59451 L52.1141001,8.59451 L52.1141001,8.55279 Z M55.8665001,8.55279 L55.8665001,5.34026 C55.5747001,5.34026 55.2411001,5.38198 54.7825001,5.4237 L54.8242001,4.88132 L57.6176001,4.88132 L57.6593001,5.4237 C57.0756001,5.34026 56.7421001,5.34026 56.5753001,5.34026 L56.5753001,8.51107 L55.8665001,8.51107 L55.8665001,8.55279 Z M58.1179001,4.92304 L58.8267001,4.92304 L58.8267001,8.55279 L58.1179001,8.55279 L58.1179001,4.92304 Z M59.5355001,8.55279 L59.5355001,4.92304 L59.9108001,4.92304 L62.0788001,7.3846 L62.0788001,4.92304 L62.5791001,4.92304 L62.5791001,8.55279 L62.2039001,8.55279 L60.0358001,6.09124 L60.0358001,8.55279 L59.5355001,8.55279 Z" id="Shape"></path>
                <path d="M88.4706001,0.667539 C88.2204001,0.250327 87.7618001,0 87.2198001,0 L51.4887001,0 C50.9050001,0 49.9877001,0 49.0288001,0.959588 C48.7369001,1.25164 48.5284001,1.58541 48.4034001,1.83573 C48.1115001,2.37811 47.9030001,2.7536 46.9024001,2.7536 L41.6907001,2.7536 C40.7318001,2.7536 40.4816001,2.37811 40.1898001,1.83573 C40.0230001,1.54368 39.8562001,1.25164 39.5644001,0.959588 C38.6054001,0 37.6882001,0 37.1045001,0 L1.41506006,0 C0.831351063,0 0.372726063,0.250327 0.164259063,0.667539 C-0.0859001372,1.08475 -0.0442065372,1.62713 0.247646063,2.08606 L0.873045063,3.17081 C1.20659006,3.75491 1.66522006,3.83835 1.99876006,3.9218 C2.29062006,3.96352 2.49908006,4.00524 2.70755006,4.42245 L3.29125006,5.42376 C3.74988006,6.25819 4.25020006,6.34163 4.62544006,6.42507 C4.91729006,6.46679 5.20914006,6.50851 5.58438006,7.17605 C5.95962006,7.84359 6.50163006,8.8449 7.87751006,9.26211 C8.00259006,9.30384 21.1777001,13.1422 21.2194001,13.1422 C22.5952001,13.6011 22.9705001,14.1018 23.3874001,14.7276 C23.6376001,15.1031 24.3463001,16.1044 26.0141001,16.5633 L38.6888001,19.9845 C40.0647001,20.36 40.8986001,19.6924 41.3155001,19.3169 L43.6086001,17.1474 C43.9422001,16.8554 44.1090001,16.7302 44.3174001,16.7302 C44.5259001,16.7302 44.6927001,16.8554 45.0262001,17.1474 L47.3193001,19.3169 C47.7363001,19.6507 48.5701001,20.3182 49.9460001,19.9845 L62.6208001,16.5633 C64.3302001,16.1044 64.9973001,15.1031 65.2474001,14.7276 C65.6644001,14.1018 66.0396001,13.5594 67.4155001,13.1422 C67.4155001,13.1422 80.5906001,9.30384 80.7573001,9.26211 C82.0915001,8.8449 82.6752001,7.84359 83.0505001,7.17605 C83.4257001,6.50851 83.6759001,6.46679 83.9677001,6.42507 C84.3430001,6.34163 84.8850001,6.25819 85.3436001,5.42376 L85.9273001,4.42245 C86.1775001,4.00524 86.3442001,3.96352 86.6361001,3.9218 C86.9696001,3.83835 87.4283001,3.75491 87.7618001,3.17081 L88.3872001,2.08606 C88.6791001,1.58541 88.7207001,1.08475 88.4706001,0.667539 Z M64.0800001,3.58803 L64.0800001,9.84621 L24.5548001,9.84621 L24.5548001,3.58803 L64.0800001,3.58803 Z M49.9043001,19.0666 C48.9454001,19.0666 48.6118001,18.2322 48.3617001,17.5646 C48.0698001,16.8137 46.5272001,11.8906 46.0685001,10.5555 L48.0281001,10.5555 C49.0705001,12.3495 50.9883001,15.5203 51.8222001,16.8554 C51.9890001,17.1057 52.4059001,17.815 53.1564001,18.2739 C50.1545001,19.0666 50.2379001,19.0666 49.9043001,19.0666 Z M54.5323001,17.815 C53.4482001,17.815 52.8645001,16.9805 52.5310001,16.4382 C51.8222001,15.3117 50.1962001,12.5998 48.9871001,10.5555 L51.1551001,10.5555 C52.5310001,12.0157 55.4078001,15.0614 56.5335001,16.2296 C56.7003001,16.3964 57.0756001,16.7719 57.6176001,17.1057 C54.9492001,17.7732 54.9492001,17.815 54.5323001,17.815 Z M58.9518001,16.6051 C58.1179001,16.6051 57.4925001,16.021 57.0756001,15.6037 C56.0749001,14.6024 53.6984001,12.0992 52.2391001,10.5138 L54.6157001,10.5138 C56.1166001,11.6402 59.5772001,14.1852 60.9530001,15.1031 C61.2032001,15.27 61.7035001,15.562 62.2872001,15.7706 C59.2019001,16.6051 59.2853001,16.6051 58.9518001,16.6051 Z M64.5387001,14.2687 C64.1634001,14.8528 63.8716001,15.1448 63.2045001,15.1448 C62.5791001,15.1448 61.9537001,14.8528 61.4117001,14.4773 C60.2859001,13.6846 57.6593001,11.8071 55.9915001,10.5555 L58.8267001,10.5555 C62.2872001,12.266 63.7465001,13.0587 64.7054001,13.3508 C64.8722001,13.3925 65.0390001,13.4342 65.2057001,13.476 C64.9139001,13.6846 64.7471001,13.9766 64.5387001,14.2687 Z M65.5810001,12.6415 C64.7888001,12.6415 63.7465001,12.0992 60.5778001,10.5138 L63.6631001,10.5138 L67.9992001,11.5985 C68.2910001,11.6819 68.5829001,11.7237 68.8331001,11.8071 C66.3732001,12.5581 65.9979001,12.6415 65.5810001,12.6415 Z M74.0030001,10.3051 C71.4597001,11.0561 71.0428001,11.223 70.3340001,11.223 C69.8337001,11.223 69.2083001,11.1396 68.1660001,10.8475 L64.7471001,9.97137 L64.7471001,8.76146 L74.0030001,10.3051 Z M76.6714001,9.55416 C75.8375001,9.76277 75.0870001,9.67933 73.9196001,9.47072 L64.8305001,7.96876 L64.8305001,7.00917 L79.7150001,8.67802 L76.6714001,9.55416 Z M82.2583001,6.75884 C82.1332001,6.96745 82.0081001,7.17605 81.8831001,7.34294 C81.3827001,8.0522 81.0492001,8.01048 79.4648001,7.84359 L64.7471001,6.17474 L64.7471001,5.25687 L81.7163001,6.25819 C81.8414001,6.25819 82.1749001,6.29991 82.5501001,6.29991 C82.4668001,6.42507 82.3417001,6.59196 82.2583001,6.75884 Z M85.1351001,3.96352 C85.1351001,3.96352 84.8016001,4.50589 84.6765001,4.79794 C84.1762001,5.59065 83.9260001,5.59064 82.5084001,5.46548 L64.7888001,4.42245 L64.7888001,3.67147 L85.3436001,3.67147 C85.2602001,3.79663 85.2185001,3.88007 85.1351001,3.96352 Z M87.6784001,1.62713 L87.2198001,2.41983 C86.8862001,2.92049 86.7612001,2.92049 85.6771001,2.92049 L48.7786001,2.92049 C49.1538001,2.46155 49.2789001,2.00262 49.6958001,1.58541 C50.4046001,0.876145 50.9883001,0.876145 51.5304001,0.876145 L87.2615001,0.876145 C87.5116001,0.876145 87.6784001,0.959588 87.7618001,1.08475 C87.8035001,1.20992 87.8035001,1.41852 87.6784001,1.62713 Z M40.5650001,18.858 C40.7318001,18.6494 40.8569001,18.3573 41.0653001,17.8567 C41.3572001,17.1057 42.9832001,11.974 43.4419001,10.5555 L45.2347001,10.5555 C45.6933001,12.0157 47.3193001,17.1057 47.6112001,17.8567 C47.7780001,18.3573 47.9447001,18.6494 48.1115001,18.858 C48.0698001,18.8163 47.9864001,18.7746 47.9447001,18.7328 L45.6516001,16.5633 C45.2764001,16.2296 44.9011001,15.8958 44.3591001,15.8958 C43.8171001,15.8958 43.4002001,16.2296 43.0666001,16.5633 L40.7735001,18.7328 C40.6901001,18.7746 40.6067001,18.8163 40.5650001,18.858 Z M35.4785001,18.2322 C36.2289001,17.7732 36.6876001,17.064 36.8126001,16.8137 C37.6465001,15.5203 39.5644001,12.3078 40.6067001,10.5138 L42.5663001,10.5138 C42.1494001,11.8488 40.5650001,16.7719 40.2732001,17.5229 C40.0230001,18.1905 39.6895001,19.0249 38.7305001,19.0249 C38.3970001,19.0666 38.4804001,19.0666 35.4785001,18.2322 Z M31.0590001,17.064 C31.6010001,16.7719 31.9762001,16.3964 32.1430001,16.1878 C33.2687001,15.0614 36.1872001,11.974 37.5214001,10.5138 L39.6895001,10.5138 C38.4804001,12.5581 36.8543001,15.27 36.1455001,16.3964 C35.8120001,16.9388 35.2283001,17.7732 34.1443001,17.7732 C33.7273001,17.815 33.6856001,17.7732 31.0590001,17.064 Z M26.3893001,15.7706 C26.9730001,15.6037 27.4733001,15.27 27.7235001,15.1031 C29.0994001,14.1852 32.5599001,11.6402 34.0609001,10.5138 L36.4374001,10.5138 C34.9781001,12.0992 32.6016001,14.6024 31.6010001,15.6037 C31.1840001,16.021 30.6003001,16.6051 29.7248001,16.6051 C29.3912001,16.6051 29.4329001,16.6051 26.3893001,15.7706 Z M23.4708001,13.4342 C23.6376001,13.3925 23.8043001,13.3925 23.9711001,13.3091 C24.9717001,13.017 26.4310001,12.266 29.8499001,10.5138 L32.6850001,10.5138 C30.9756001,11.7654 28.3906001,13.6428 27.2649001,14.4355 C26.7646001,14.811 26.0975001,15.1031 25.4721001,15.1031 C24.8050001,15.1031 24.5131001,14.811 24.1379001,14.2269 C23.9294001,13.9766 23.7210001,13.6846 23.4708001,13.4342 Z M19.8435001,11.8488 C20.0936001,11.8071 20.3855001,11.7237 20.6773001,11.6402 L25.0134001,10.5555 L28.0987001,10.5555 C24.9301001,12.1409 23.8877001,12.6833 23.0956001,12.6833 C22.6369001,12.6415 22.2617001,12.5581 19.8435001,11.8488 Z M23.8877001,8.76146 L23.8877001,9.97137 L20.4689001,10.8475 C19.4265001,11.0978 18.8011001,11.223 18.3008001,11.223 C17.5920001,11.223 17.1751001,11.0561 14.6318001,10.3051 L23.8877001,8.76146 Z M9.00323006,8.67802 L23.8877001,7.00917 L23.8877001,7.96876 L14.7986001,9.47072 C13.5895001,9.67933 12.8390001,9.76277 12.0468001,9.55416 L9.00323006,8.67802 Z M6.08470006,6.29991 C6.41825006,6.25818 6.79349006,6.25819 6.91857006,6.25819 L23.8877001,5.25687 L23.8877001,6.17474 L9.17000006,7.84359 C7.58566006,8.01048 7.25211006,8.0522 6.75180006,7.34294 C6.62672006,7.17605 6.50164006,6.96745 6.37656006,6.75884 C6.29317006,6.59196 6.20978006,6.42507 6.08470006,6.29991 Z M3.33295006,3.71319 L23.8877001,3.71319 L23.8877001,4.46417 L6.16809006,5.5072 C4.75052006,5.59065 4.50036006,5.63237 4.00004006,4.83966 C3.83327006,4.54761 3.54141006,4.00524 3.54141006,4.00524 C3.45803006,3.88007 3.37464006,3.79663 3.33295006,3.71319 Z M0.914739063,1.08475 C0.998126063,0.959588 1.16490006,0.876145 1.41506006,0.876145 L37.1462001,0.876145 C37.6882001,0.876145 38.3136001,0.876145 38.9807001,1.58541 C39.3976001,2.00262 39.5227001,2.46155 39.8979001,2.92049 L2.99940006,2.92049 C1.91538006,2.92049 1.79030006,2.92049 1.45675006,2.41983 L0.998124063,1.62713 C0.873045063,1.41852 0.831353063,1.20992 0.914739063,1.08475 Z" id="Shape"></path>
            </g>
        </g>
    </g>
</svg>